HIERARCHY
ROOT reference
{
  OFFSET 0 0 0
  CHANNELS 6 Xposition Yposition Zposition Zrotation Xrotation Yrotation
  JOINT Hips
  {
    OFFSET 355.919 86.4685 225.794
    CHANNELS 3 Zrotation Xrotation Yrotation
    JOINT RightUpLeg
    {
      OFFSET -9.27022 -1.53975 0.0125073
      CHANNELS 3 Zrotation Xrotation Yrotation
      JOINT RightLeg
      {
        OFFSET 0.013591 -41.8786 0.0152335
        CHANNELS 3 Zrotation Xrotation Yrotation
        JOINT RightFoot
        {
          OFFSET -0.635566 -43.1371 -0.638083
          CHANNELS 3 Zrotation Xrotation Yrotation
          End Site
          {
            OFFSET 0 -7.69 17.5
          }
        }
      }
    }
    JOINT LeftUpLeg
    {
      OFFSET 9.3307 -1.62449 -0.0651281
      CHANNELS 3 Zrotation Xrotation Yrotation
      JOINT LeftLeg
      {
        OFFSET 0.136006 -41.8606 -0.0682192
        CHANNELS 3 Zrotation Xrotation Yrotation
        JOINT LeftFoot
        {
          OFFSET 0.555276 -40.3296 1.11688
          CHANNELS 3 Zrotation Xrotation Yrotation
          End Site
          {
            OFFSET 0 -7.69 17.5
          }
        }
      }
    }
    JOINT Spine
    {
      OFFSET 0.0523142 14.2998 0.0636653
      CHANNELS 3 Zrotation Xrotation Yrotation
      JOINT Spine1
      {
        OFFSET 0.0411785 9.71676 0.0113233
        CHANNELS 3 Zrotation Xrotation Yrotation
        JOINT Spine2
        {
          OFFSET 0.0674534 10.1151 -0.00111457
          CHANNELS 3 Zrotation Xrotation Yrotation
          JOINT Spine3
          {
            OFFSET 0.048863 9.72171 0.0174249
            CHANNELS 3 Zrotation Xrotation Yrotation
            JOINT Neck
            {
              OFFSET 0.180558 10.3768 0.0617075
              CHANNELS 3 Zrotation Xrotation Yrotation
              JOINT Head
              {
                OFFSET 0.135918 9.47305 0.0380206
                CHANNELS 3 Zrotation Xrotation Yrotation
                End Site
                {
                  OFFSET 0 15.95 0
                }
              }
            }
            JOINT RightShoulder
            {
              OFFSET -3.15694 6.89408 0.00348883
              CHANNELS 3 Zrotation Xrotation Yrotation
              JOINT RightArm
              {
                OFFSET -12.7409 -0.0031918 0.045926
                CHANNELS 3 Zrotation Xrotation Yrotation
                JOINT RightForeArm
                {
                  OFFSET -26.5086 -0.0806184 0.00400063
                  CHANNELS 3 Zrotation Xrotation Yrotation
                  JOINT RightHand
                  {
                    OFFSET -26.0338 -0.025514 0.155859
                    CHANNELS 3 Zrotation Xrotation Yrotation
                    JOINT RightHandThumb1
                    {
                      OFFSET -2.48905 0.190105 3.12053
                      CHANNELS 3 Zrotation Xrotation Yrotation
                      JOINT RightHandThumb2
                      {
                        OFFSET -3.68274 0 0
                        CHANNELS 3 Zrotation Xrotation Yrotation
                        JOINT RightHandThumb3
                        {
                          OFFSET -2.55832 0 0
                          CHANNELS 3 Zrotation Xrotation Yrotation
                          End Site
                          {
                            OFFSET -2.194 0 0
                          }
                        }
                      }
                    }
                    JOINT RightInHandIndex
                    {
                      OFFSET -3.22368 0.508421 1.97842
                      CHANNELS 3 Zrotation Xrotation Yrotation
                      JOINT RightHandIndex1
                      {
                        OFFSET -5.21684 -0.091368 0.999158
                        CHANNELS 3 Zrotation Xrotation Yrotation
                        JOINT RightHandIndex2
                        {
                          OFFSET -3.61937 0 0
                          CHANNELS 3 Zrotation Xrotation Yrotation
                          JOINT RightHandIndex3
                          {
                            OFFSET -2.0521 0 0
                            CHANNELS 3 Zrotation Xrotation Yrotation
                            End Site
                            {
                              OFFSET -1.805 0 0
                            }
                          }
                        }
                      }
                    }
                    JOINT RightInHandMiddle
                    {
                      OFFSET -3.38211 0.517263 0.756737
                      CHANNELS 3 Zrotation Xrotation Yrotation
                      JOINT RightHandMiddle1
                      {
                        OFFSET -5.17411 -0.084 0.313895
                        CHANNELS 3 Zrotation Xrotation Yrotation
                        JOINT RightHandMiddle2
                        {
                          OFFSET -3.94947 0 0
                          CHANNELS 3 Zrotation Xrotation Yrotation
                          JOINT RightHandMiddle3
                          {
                            OFFSET -2.47579 0 0
                            CHANNELS 3 Zrotation Xrotation Yrotation
                            End Site
                            {
                              OFFSET -1.975 0 0
                            }
                          }
                        }
                      }
                    }
                    JOINT RightInHandRing
                    {
                      OFFSET -3.36516 0.537895 -0.128947
                      CHANNELS 3 Zrotation Xrotation Yrotation
                      JOINT RightHandRing1
                      {
                        OFFSET -4.63474 -0.022105 -0.478947
                        CHANNELS 3 Zrotation Xrotation Yrotation
                        JOINT RightHandRing2
                        {
                          OFFSET -3.44238 0 0
                          CHANNELS 3 Zrotation Xrotation Yrotation
                          JOINT RightHandRing3
                          {
                            OFFSET -2.3881 0 0
                            CHANNELS 3 Zrotation Xrotation Yrotation
                            End Site
                            {
                              OFFSET -1.857 0 0
                            }
                          }
                        }
                      }
                    }
                    JOINT RightInHandPinky
                    {
                      OFFSET -3.16105 0.469368 -1.20179
                      CHANNELS 3 Zrotation Xrotation Yrotation
                      JOINT RightHandPinky1
                      {
                        OFFSET -4.14105 -0.022105 -1.09053
                        CHANNELS 3 Zrotation Xrotation Yrotation
                        JOINT RightHandPinky2
                        {
                          OFFSET -2.75653 0 0
                          CHANNELS 3 Zrotation Xrotation Yrotation
                          JOINT RightHandPinky3
                          {
                            OFFSET -1.74189 0 0
                            CHANNELS 3 Zrotation Xrotation Yrotation
                            End Site
                            {
                              OFFSET -1.645 0 0
                            }
                          }
                        }
                      }
                    }
                  }
                }
              }
            }
            JOINT LeftShoulder
            {
              OFFSET 3.22505 6.94333 0.022328
              CHANNELS 3 Zrotation Xrotation Yrotation
              JOINT LeftArm
              {
                OFFSET 12.8536 -0.0213048 -0.00476292
                CHANNELS 3 Zrotation Xrotation Yrotation
                JOINT LeftForeArm
                {
                  OFFSET 26.4992 -0.0497473 -0.102272
                  CHANNELS 3 Zrotation Xrotation Yrotation
                  JOINT LeftHand
                  {
                    OFFSET 25.9818 -0.0182282 -0.0189166
                    CHANNELS 3 Zrotation Xrotation Yrotation
                    JOINT LeftHandThumb1
                    {
                      OFFSET 2.48905 0.190105 3.12053
                      CHANNELS 3 Zrotation Xrotation Yrotation
                      JOINT LeftHandThumb2
                      {
                        OFFSET 3.68274 0 0
                        CHANNELS 3 Zrotation Xrotation Yrotation
                        JOINT LeftHandThumb3
                        {
                          OFFSET 2.55832 0 0
                          CHANNELS 3 Zrotation Xrotation Yrotation
                          End Site
                          {
                            OFFSET 2.194 0 0
                          }
                        }
                      }
                    }
                    JOINT LeftInHandIndex
                    {
                      OFFSET 3.22368 0.508421 1.97842
                      CHANNELS 3 Zrotation Xrotation Yrotation
                      JOINT LeftHandIndex1
                      {
                        OFFSET 5.21684 -0.091368 0.999158
                        CHANNELS 3 Zrotation Xrotation Yrotation
                        JOINT LeftHandIndex2
                        {
                          OFFSET 3.61937 0 0
                          CHANNELS 3 Zrotation Xrotation Yrotation
                          JOINT LeftHandIndex3
                          {
                            OFFSET 2.0521 0 0
                            CHANNELS 3 Zrotation Xrotation Yrotation
                            End Site
                            {
                              OFFSET 1.805 0 0
                            }
                          }
                        }
                      }
                    }
                    JOINT LeftInHandMiddle
                    {
                      OFFSET 3.38211 0.517263 0.756737
                      CHANNELS 3 Zrotation Xrotation Yrotation
                      JOINT LeftHandMiddle1
                      {
                        OFFSET 5.17411 -0.084 0.313895
                        CHANNELS 3 Zrotation Xrotation Yrotation
                        JOINT LeftHandMiddle2
                        {
                          OFFSET 3.94947 0 0
                          CHANNELS 3 Zrotation Xrotation Yrotation
                          JOINT LeftHandMiddle3
                          {
                            OFFSET 2.47579 0 0
                            CHANNELS 3 Zrotation Xrotation Yrotation
                            End Site
                            {
                              OFFSET 1.975 0 0
                            }
                          }
                        }
                      }
                    }
                    JOINT LeftInHandRing
                    {
                      OFFSET 3.36516 0.537895 -0.128947
                      CHANNELS 3 Zrotation Xrotation Yrotation
                      JOINT LeftHandRing1
                      {
                        OFFSET 4.63474 -0.022105 -0.478947
                        CHANNELS 3 Zrotation Xrotation Yrotation
                        JOINT LeftHandRing2
                        {
                          OFFSET 3.44238 0 0
                          CHANNELS 3 Zrotation Xrotation Yrotation
                          JOINT LeftHandRing3
                          {
                            OFFSET 2.3881 0 0
                            CHANNELS 3 Zrotation Xrotation Yrotation
                            End Site
                            {
                              OFFSET 1.857 0 0
                            }
                          }
                        }
                      }
                    }
                    JOINT LeftInHandPinky
                    {
                      OFFSET 3.16105 0.469368 -1.20179
                      CHANNELS 3 Zrotation Xrotation Yrotation
                      JOINT LeftHandPinky1
                      {
                        OFFSET 4.14105 -0.022105 -1.09053
                        CHANNELS 3 Zrotation Xrotation Yrotation
                        JOINT LeftHandPinky2
                        {
                          OFFSET 2.75653 0 0
                          CHANNELS 3 Zrotation Xrotation Yrotation
                          JOINT LeftHandPinky3
                          {
                            OFFSET 1.74189 0 0
                            CHANNELS 3 Zrotation Xrotation Yrotation
                            End Site
                            {
                              OFFSET 1.645 0 0
                            }
                          }
                        }
                      }
                    }
                  }
                }
              }
            }
          }
        }
      }
    }
  }
}
MOTION
Frames: 2
Frame Time: 0.00833333
4.500000000000000000e+02 0.000000000000000000e+00 0.000000000000000000e+00 0.000000000000000000e+00 0.000000000000000000e+00 0.000000000000000000e+00 -2.804899976986713686e-02 2.549998741464600815e-01 1.384895739379680413e-01 3.018149183511846800e-01 -2.134980779956617905e-02 9.592557422489775276e-02 1.625568914153865396e-01 6.738177120836634504e-02 -4.322870907199540258e-01 -2.912129874897840254e-01 -9.553251459149082053e-03 2.592871746497119045e-01 3.029830917696985648e-01 -3.253592464311938492e-02 -9.545023526532889213e-02 -1.901965669429625805e-01 1.123546194628279454e-01 1.125196257550349355e-01 -1.538267002862178101e-01 -4.577744514428777611e-02 -1.571666444682765507e-01 9.995968023314176498e-02 5.654360191377291039e-02 5.904452577913044120e-02 2.784250119265974099e-02 1.400236731923487805e-02 1.771932081306361664e-02 4.458016237387692898e-02 2.315806338723987862e-02 2.812059471722550691e-02 7.909270656700941385e-03 -7.276074472720414459e-03 -1.191981971782107852e-02 -2.163383754225704086e-02 -3.420255405612313698e-02 6.299358999639113887e-02 1.032636061204801892e-01 -1.129766025738646040e-01 -2.913162992805813922e-01 3.865096696361709078e-02 -1.409191715057183381e-01 -5.624748253321285585e-01 6.310679855387033577e-01 -3.892464881230538243e+00 -2.712338926909295123e-01 -3.380085755735653952e-01 3.176559374551284787e+00 -2.112066630918795429e+00 -1.982864180400783771e-01 -3.353704613318563288e-01 -1.550861078107929947e+00 0.000000000000000000e+00 0.000000000000000000e+00 0.000000000000000000e+00 -4.915809813920404146e-15 1.455598946405668899e-15 0.000000000000000000e+00 -2.831788379172039900e-16 2.456260315750036073e-15 0.000000000000000000e+00 9.353640621173728154e-16 2.971928996653542328e-15 2.218787131670067873e-15 0.000000000000000000e+00 0.000000000000000000e+00 0.000000000000000000e+00 0.000000000000000000e+00 -3.664100093822285596e-15 -1.330263933491796287e-14 0.000000000000000000e+00 6.317124578597053824e-15 1.455891176873625609e-14 9.353640621173728154e-16 2.971928996653542328e-15 2.218787131670067873e-15 0.000000000000000000e+00 -5.343958531384222547e-15 -7.084823459391612312e-15 0.000000000000000000e+00 -3.162481595248459409e-15 -1.293441469792451033e-14 0.000000000000000000e+00 8.408066163774032720e-16 1.505203662608857258e-14 9.353640621173728154e-16 2.971928996653542328e-15 2.218787131670067873e-15 0.000000000000000000e+00 0.000000000000000000e+00 0.000000000000000000e+00 0.000000000000000000e+00 -7.328748036060567653e-15 -1.445970383327805505e-14 0.000000000000000000e+00 2.550428626508773160e-15 2.968516555854804505e-14 9.353640621173728154e-16 2.971928996653542328e-15 2.218787131670067873e-15 0.000000000000000000e+00 0.000000000000000000e+00 0.000000000000000000e+00 0.000000000000000000e+00 -4.157443587241020624e-15 -2.049540665992849260e-14 0.000000000000000000e+00 1.016627051821864176e-14 2.293019752392738720e-14 2.528331053739533707e-01 -7.994194550651839704e-02 -4.433647518959397682e-01 1.526355107527271326e-01 -9.857125837704064919e-01 -5.965988651797650144e-01 -7.837174123891113009e-01 -6.649236957983335472e-01 1.996394045746414381e-01 3.080676683098361734e-01 -3.149487188506372992e-01 2.378223348985279983e-01 0.000000000000000000e+00 0.000000000000000000e+00 0.000000000000000000e+00 -8.170581155183934085e-15 1.765781444669459595e-15 0.000000000000000000e+00 -6.063218661092788686e-15 -1.840549852540523318e-15 0.000000000000000000e+00 1.127327327432514929e-15 2.535120873580375287e-15 9.803271574112961565e-16 0.000000000000000000e+00 0.000000000000000000e+00 0.000000000000000000e+00 0.000000000000000000e+00 3.318600902104101242e-15 -1.257879006955640164e-14 0.000000000000000000e+00 5.565016288573690308e-15 -7.140909968229171660e-15 1.127327327432514929e-15 2.535120873580375287e-15 9.803271574112961565e-16 0.000000000000000000e+00 3.646197991481614030e-16 -4.619013726692990373e-16 0.000000000000000000e+00 3.447513873382912036e-15 -8.554535124800114139e-15 0.000000000000000000e+00 1.533050820459809650e-15 -2.961560799913528816e-15 1.127327327432514929e-15 2.535120873580375287e-15 9.803271574112961565e-16 0.000000000000000000e+00 0.000000000000000000e+00 0.000000000000000000e+00 0.000000000000000000e+00 -2.883647686173233038e-17 -5.770211596245535687e-15 0.000000000000000000e+00 4.351273989730165072e-16 3.476370698667774461e-15 1.127327327432514929e-15 2.535120873580375287e-15 9.803271574112961565e-16 0.000000000000000000e+00 0.000000000000000000e+00 0.000000000000000000e+00 0.000000000000000000e+00 -4.744429279563014442e-16 -9.459457401565562071e-15 0.000000000000000000e+00 2.908717259550238213e-15 -3.950514065294811156e-15
4.500000000000000000e+02 0.000000000000000000e+00 0.000000000000000000e+00 0.000000000000000000e+00 0.000000000000000000e+00 0.000000000000000000e+00 -2.320789191237087462e-02 2.362655541998546216e-01 1.142123477120976643e-01 3.167558103071733688e-01 -1.607799364770800751e-02 1.165965635366924408e-01 2.322929719022840123e-01 5.224680968472008441e-02 -6.338249338258709065e-01 -3.866897242206719376e-01 7.740122478748996497e-03 4.489225574441746414e-01 2.766400632714844376e-01 -3.099484602873226260e-02 -7.491057334645773169e-02 -1.119139633258379868e-01 1.500864534536245076e-01 -1.241055836227979159e-02 -1.597489044690825200e-01 -1.006999921588611902e-01 -7.362470074339508286e-02 9.295118619705275420e-02 5.073072687300128614e-02 5.879798175913855673e-02 2.592584310557148955e-02 1.260770994113774232e-02 1.760265720001899167e-02 4.202519576957060299e-02 2.084827942637274001e-02 2.792616994244685735e-02 7.536386028135291792e-03 -9.031678599056899154e-03 -1.060094451478110593e-02 -1.885092089577984978e-02 -3.481513284551007031e-02 6.386098562344882934e-02 9.880530162006984085e-02 -1.300907355532489040e-01 -2.643753741167385041e-01 6.333350961686447234e-02 -1.038900767821001880e-01 -6.140543474323520989e-01 5.110699884230680556e-01 -3.409084112193529581e+00 -1.564319083981006164e-01 -3.423595395131535657e-01 2.804010028123728571e+00 -2.035078862977708347e+00 -1.050176633899892464e-01 -2.956797735537193828e-01 -1.272301575044282540e+00 0.000000000000000000e+00 0.000000000000000000e+00 0.000000000000000000e+00 -2.603843165197329164e-15 -1.437147624634068159e-16 0.000000000000000000e+00 -4.504079559406894183e-17 -1.557279860665687236e-16 0.000000000000000000e+00 -1.222022925016673119e-15 2.717131875006617848e-15 2.317005940429231936e-15 0.000000000000000000e+00 0.000000000000000000e+00 0.000000000000000000e+00 0.000000000000000000e+00 -2.871063943726300287e-15 -7.393877008267438895e-15 0.000000000000000000e+00 6.616008989268992756e-15 2.171909259198860672e-14 -1.222022925016673119e-15 2.717131875006617848e-15 2.317005940429231936e-15 0.000000000000000000e+00 -4.910013223236902677e-15 -3.871382609221379033e-15 0.000000000000000000e+00 -1.948872876072133291e-15 -9.691097966880378956e-15 0.000000000000000000e+00 1.578619577157542543e-15 2.124518128832478681e-14 -1.222022925016673119e-15 2.717131875006617848e-15 2.317005940429231936e-15 0.000000000000000000e+00 0.000000000000000000e+00 0.000000000000000000e+00 0.000000000000000000e+00 -6.672689308870991827e-15 -7.763501218243002262e-15 0.000000000000000000e+00 2.456655727710577294e-15 2.895759584335821340e-14 -1.222022925016673119e-15 2.717131875006617848e-15 2.317005940429231936e-15 0.000000000000000000e+00 0.000000000000000000e+00 0.000000000000000000e+00 0.000000000000000000e+00 -4.660429878119973972e-15 -1.955095923804954478e-14 0.000000000000000000e+00 1.204158147442636249e-14 2.669547306720469517e-14 3.253547178993361766e-01 -1.561892735115548436e-01 -7.263923372145953961e-01 -1.242076413091083853e-01 -1.083745076719658806e+00 -3.070528730540041384e-01 -6.473178285198473159e-01 -6.073035090621250465e-01 2.863313287234315330e-01 2.651666794368440216e-01 -4.931434835105588665e-01 8.676100057673265253e-02 0.000000000000000000e+00 0.000000000000000000e+00 0.000000000000000000e+00 -5.515119392038010002e-15 2.439856466210356402e-15 0.000000000000000000e+00 -7.483063017745893865e-15 -1.229347257337309517e-15 0.000000000000000000e+00 2.947707248370130274e-16 2.042845966356730701e-15 4.664803565961286709e-16 0.000000000000000000e+00 0.000000000000000000e+00 0.000000000000000000e+00 0.000000000000000000e+00 2.729003888506558965e-15 -1.230052567547351801e-14 0.000000000000000000e+00 5.487551980479015508e-15 -8.628079870159148345e-15 2.947707248370130274e-16 2.042845966356730701e-15 4.664803565961286709e-16 0.000000000000000000e+00 -7.919342357333446798e-16 -1.152225075950705274e-15 0.000000000000000000e+00 2.647882982862821389e-15 -8.280723410892131832e-15 0.000000000000000000e+00 1.096025753704926222e-15 -4.310321235455456704e-15 2.947707248370130274e-16 2.042845966356730701e-15 4.664803565961286709e-16 0.000000000000000000e+00 0.000000000000000000e+00 0.000000000000000000e+00 0.000000000000000000e+00 6.594614288696854936e-16 -6.336076801700639738e-15 0.000000000000000000e+00 1.346807098909047984e-15 3.011578856820943531e-15 2.947707248370130274e-16 2.042845966356730701e-15 4.664803565961286709e-16 0.000000000000000000e+00 0.000000000000000000e+00 0.000000000000000000e+00 0.000000000000000000e+00 1.068229412108694583e-16 -7.959857358548810310e-15 0.000000000000000000e+00 3.179911362117290232e-15 -5.854519672442895920e-15
